<mxfile host="app.diagrams.net" modified="2023-11-21T20:13:19.069Z" agent="Mozilla/5.0 (Macintosh; Intel Mac OS X 10_15_7) AppleWebKit/537.36 (KHTML, like Gecko) Chrome/119.0.0.0 Safari/537.36" etag="lC7U_K7JuA2JWjFm2hDN" version="22.1.3" type="device">
  <diagram name="第 1 页" id="5IeJqj0zfw6cFMaBvg12">
    <mxGraphModel dx="722" dy="630" grid="1" gridSize="10" guides="1" tooltips="1" connect="1" arrows="1" fold="1" page="1" pageScale="1" pageWidth="827" pageHeight="1169" math="0" shadow="0">
      <root>
        <mxCell id="0" />
        <mxCell id="1" parent="0" />
        <mxCell id="3kti3_zSwYaAKb-g7Pxp-1" value="" style="ellipse;fillColor=strokeColor;html=1;" vertex="1" parent="1">
          <mxGeometry x="50" y="130" width="30" height="30" as="geometry" />
        </mxCell>
        <mxCell id="3kti3_zSwYaAKb-g7Pxp-2" value="" style="endArrow=open;startArrow=none;endFill=0;startFill=0;endSize=8;html=1;verticalAlign=bottom;labelBackgroundColor=none;rounded=0;" edge="1" parent="1">
          <mxGeometry width="160" relative="1" as="geometry">
            <mxPoint x="80" y="144.5" as="sourcePoint" />
            <mxPoint x="160" y="145" as="targetPoint" />
          </mxGeometry>
        </mxCell>
        <mxCell id="3kti3_zSwYaAKb-g7Pxp-3" value="第一次登入" style="html=1;align=center;verticalAlign=top;rounded=1;absoluteArcSize=1;arcSize=10;dashed=0;whiteSpace=wrap;" vertex="1" parent="1">
          <mxGeometry x="160" y="130" width="100" height="30" as="geometry" />
        </mxCell>
        <mxCell id="3kti3_zSwYaAKb-g7Pxp-5" value="" style="endArrow=open;startArrow=none;endFill=0;startFill=0;endSize=8;html=1;verticalAlign=bottom;labelBackgroundColor=none;rounded=0;" edge="1" parent="1">
          <mxGeometry width="160" relative="1" as="geometry">
            <mxPoint x="260" y="144.5" as="sourcePoint" />
            <mxPoint x="340" y="145" as="targetPoint" />
          </mxGeometry>
        </mxCell>
        <mxCell id="3kti3_zSwYaAKb-g7Pxp-6" value="點選註冊" style="edgeLabel;html=1;align=center;verticalAlign=middle;resizable=0;points=[];" vertex="1" connectable="0" parent="3kti3_zSwYaAKb-g7Pxp-5">
          <mxGeometry x="0.1142" y="-1" relative="1" as="geometry">
            <mxPoint as="offset" />
          </mxGeometry>
        </mxCell>
        <mxCell id="3kti3_zSwYaAKb-g7Pxp-7" value="輸入資料" style="html=1;align=center;verticalAlign=top;rounded=1;absoluteArcSize=1;arcSize=10;dashed=0;whiteSpace=wrap;" vertex="1" parent="1">
          <mxGeometry x="340" y="130" width="100" height="30" as="geometry" />
        </mxCell>
        <mxCell id="3kti3_zSwYaAKb-g7Pxp-10" value="" style="endArrow=open;startArrow=none;endFill=0;startFill=0;endSize=8;html=1;verticalAlign=bottom;labelBackgroundColor=none;rounded=0;" edge="1" parent="1">
          <mxGeometry width="160" relative="1" as="geometry">
            <mxPoint x="440" y="144.5" as="sourcePoint" />
            <mxPoint x="520" y="145" as="targetPoint" />
          </mxGeometry>
        </mxCell>
        <mxCell id="3kti3_zSwYaAKb-g7Pxp-11" value="輸入成功" style="edgeLabel;html=1;align=center;verticalAlign=middle;resizable=0;points=[];" vertex="1" connectable="0" parent="3kti3_zSwYaAKb-g7Pxp-10">
          <mxGeometry x="0.2391" y="-1" relative="1" as="geometry">
            <mxPoint as="offset" />
          </mxGeometry>
        </mxCell>
        <mxCell id="3kti3_zSwYaAKb-g7Pxp-19" value="" style="edgeStyle=orthogonalEdgeStyle;rounded=0;orthogonalLoop=1;jettySize=auto;html=1;" edge="1" parent="1" source="3kti3_zSwYaAKb-g7Pxp-12" target="3kti3_zSwYaAKb-g7Pxp-18">
          <mxGeometry relative="1" as="geometry" />
        </mxCell>
        <mxCell id="3kti3_zSwYaAKb-g7Pxp-12" value="" style="ellipse;fillColor=strokeColor;html=1;" vertex="1" parent="1">
          <mxGeometry x="520" y="130" width="30" height="30" as="geometry" />
        </mxCell>
        <mxCell id="3kti3_zSwYaAKb-g7Pxp-14" value="" style="endArrow=open;startArrow=none;endFill=0;startFill=0;endSize=8;html=1;verticalAlign=bottom;labelBackgroundColor=none;rounded=0;" edge="1" parent="1">
          <mxGeometry width="160" relative="1" as="geometry">
            <mxPoint x="550" y="144.5" as="sourcePoint" />
            <mxPoint x="590" y="145" as="targetPoint" />
          </mxGeometry>
        </mxCell>
        <mxCell id="3kti3_zSwYaAKb-g7Pxp-17" value="" style="endArrow=none;startArrow=open;endFill=0;startFill=0;endSize=8;html=1;verticalAlign=bottom;labelBackgroundColor=none;rounded=0;entryX=0.5;entryY=1;entryDx=0;entryDy=0;exitX=0.607;exitY=1.03;exitDx=0;exitDy=0;exitPerimeter=0;" edge="1" parent="1" source="3kti3_zSwYaAKb-g7Pxp-3" target="3kti3_zSwYaAKb-g7Pxp-7">
          <mxGeometry width="160" relative="1" as="geometry">
            <mxPoint x="170" y="200" as="sourcePoint" />
            <mxPoint x="400" y="190.5" as="targetPoint" />
            <Array as="points">
              <mxPoint x="220" y="200" />
              <mxPoint x="390" y="200" />
            </Array>
          </mxGeometry>
        </mxCell>
        <mxCell id="3kti3_zSwYaAKb-g7Pxp-26" value="輸入失敗" style="edgeLabel;html=1;align=center;verticalAlign=middle;resizable=0;points=[];" vertex="1" connectable="0" parent="3kti3_zSwYaAKb-g7Pxp-17">
          <mxGeometry x="0.0018" y="-5" relative="1" as="geometry">
            <mxPoint as="offset" />
          </mxGeometry>
        </mxCell>
        <mxCell id="3kti3_zSwYaAKb-g7Pxp-18" value="成為會員" style="html=1;align=center;verticalAlign=top;rounded=1;absoluteArcSize=1;arcSize=10;dashed=0;whiteSpace=wrap;" vertex="1" parent="1">
          <mxGeometry x="590" y="130" width="100" height="30" as="geometry" />
        </mxCell>
        <mxCell id="3kti3_zSwYaAKb-g7Pxp-24" value="" style="endArrow=open;startArrow=none;endFill=0;startFill=0;endSize=8;html=1;verticalAlign=bottom;labelBackgroundColor=none;rounded=0;" edge="1" parent="1">
          <mxGeometry width="160" relative="1" as="geometry">
            <mxPoint x="690" y="144.5" as="sourcePoint" />
            <mxPoint x="730" y="145" as="targetPoint" />
          </mxGeometry>
        </mxCell>
        <mxCell id="3kti3_zSwYaAKb-g7Pxp-25" value="" style="ellipse;html=1;shape=endState;fillColor=strokeColor;" vertex="1" parent="1">
          <mxGeometry x="730" y="130" width="30" height="30" as="geometry" />
        </mxCell>
        <mxCell id="3kti3_zSwYaAKb-g7Pxp-27" value="" style="ellipse;fillColor=strokeColor;html=1;" vertex="1" parent="1">
          <mxGeometry x="50" y="300" width="30" height="30" as="geometry" />
        </mxCell>
        <mxCell id="3kti3_zSwYaAKb-g7Pxp-28" value="" style="endArrow=open;startArrow=none;endFill=0;startFill=0;endSize=8;html=1;verticalAlign=bottom;labelBackgroundColor=none;rounded=0;" edge="1" parent="1">
          <mxGeometry width="160" relative="1" as="geometry">
            <mxPoint x="80" y="314.5" as="sourcePoint" />
            <mxPoint x="160" y="315" as="targetPoint" />
          </mxGeometry>
        </mxCell>
        <mxCell id="3kti3_zSwYaAKb-g7Pxp-29" value="登入" style="html=1;align=center;verticalAlign=top;rounded=1;absoluteArcSize=1;arcSize=10;dashed=0;whiteSpace=wrap;" vertex="1" parent="1">
          <mxGeometry x="160" y="300" width="100" height="30" as="geometry" />
        </mxCell>
        <mxCell id="3kti3_zSwYaAKb-g7Pxp-30" value="" style="endArrow=open;startArrow=none;endFill=0;startFill=0;endSize=8;html=1;verticalAlign=bottom;labelBackgroundColor=none;rounded=0;" edge="1" parent="1">
          <mxGeometry width="160" relative="1" as="geometry">
            <mxPoint x="260" y="314.5" as="sourcePoint" />
            <mxPoint x="340" y="315" as="targetPoint" />
          </mxGeometry>
        </mxCell>
        <mxCell id="3kti3_zSwYaAKb-g7Pxp-31" value="點選登入" style="edgeLabel;html=1;align=center;verticalAlign=middle;resizable=0;points=[];" vertex="1" connectable="0" parent="3kti3_zSwYaAKb-g7Pxp-30">
          <mxGeometry x="0.1142" y="-1" relative="1" as="geometry">
            <mxPoint as="offset" />
          </mxGeometry>
        </mxCell>
        <mxCell id="3kti3_zSwYaAKb-g7Pxp-32" value="輸入帳號密碼" style="html=1;align=center;verticalAlign=top;rounded=1;absoluteArcSize=1;arcSize=10;dashed=0;whiteSpace=wrap;" vertex="1" parent="1">
          <mxGeometry x="340" y="300" width="100" height="30" as="geometry" />
        </mxCell>
        <mxCell id="3kti3_zSwYaAKb-g7Pxp-33" value="" style="endArrow=open;startArrow=none;endFill=0;startFill=0;endSize=8;html=1;verticalAlign=bottom;labelBackgroundColor=none;rounded=0;" edge="1" parent="1">
          <mxGeometry width="160" relative="1" as="geometry">
            <mxPoint x="440" y="314.5" as="sourcePoint" />
            <mxPoint x="520" y="315" as="targetPoint" />
          </mxGeometry>
        </mxCell>
        <mxCell id="3kti3_zSwYaAKb-g7Pxp-34" value="驗證成功" style="edgeLabel;html=1;align=center;verticalAlign=middle;resizable=0;points=[];" vertex="1" connectable="0" parent="3kti3_zSwYaAKb-g7Pxp-33">
          <mxGeometry x="0.2391" y="-1" relative="1" as="geometry">
            <mxPoint as="offset" />
          </mxGeometry>
        </mxCell>
        <mxCell id="3kti3_zSwYaAKb-g7Pxp-35" value="" style="edgeStyle=orthogonalEdgeStyle;rounded=0;orthogonalLoop=1;jettySize=auto;html=1;" edge="1" source="3kti3_zSwYaAKb-g7Pxp-36" parent="1">
          <mxGeometry relative="1" as="geometry">
            <mxPoint x="590" y="315" as="targetPoint" />
          </mxGeometry>
        </mxCell>
        <mxCell id="3kti3_zSwYaAKb-g7Pxp-36" value="" style="ellipse;fillColor=strokeColor;html=1;" vertex="1" parent="1">
          <mxGeometry x="520" y="300" width="30" height="30" as="geometry" />
        </mxCell>
        <mxCell id="3kti3_zSwYaAKb-g7Pxp-37" value="" style="endArrow=open;startArrow=none;endFill=0;startFill=0;endSize=8;html=1;verticalAlign=bottom;labelBackgroundColor=none;rounded=0;" edge="1" parent="1">
          <mxGeometry width="160" relative="1" as="geometry">
            <mxPoint x="550" y="314.5" as="sourcePoint" />
            <mxPoint x="590" y="315" as="targetPoint" />
          </mxGeometry>
        </mxCell>
        <mxCell id="3kti3_zSwYaAKb-g7Pxp-38" value="" style="endArrow=none;startArrow=open;endFill=0;startFill=0;endSize=8;html=1;verticalAlign=bottom;labelBackgroundColor=none;rounded=0;entryX=0.5;entryY=1;entryDx=0;entryDy=0;exitX=0.607;exitY=1.03;exitDx=0;exitDy=0;exitPerimeter=0;" edge="1" source="3kti3_zSwYaAKb-g7Pxp-29" target="3kti3_zSwYaAKb-g7Pxp-32" parent="1">
          <mxGeometry width="160" relative="1" as="geometry">
            <mxPoint x="170" y="370" as="sourcePoint" />
            <mxPoint x="400" y="360.5" as="targetPoint" />
            <Array as="points">
              <mxPoint x="220" y="370" />
              <mxPoint x="390" y="370" />
            </Array>
          </mxGeometry>
        </mxCell>
        <mxCell id="3kti3_zSwYaAKb-g7Pxp-39" value="驗證失敗" style="edgeLabel;html=1;align=center;verticalAlign=middle;resizable=0;points=[];" vertex="1" connectable="0" parent="3kti3_zSwYaAKb-g7Pxp-38">
          <mxGeometry x="0.0018" y="-5" relative="1" as="geometry">
            <mxPoint as="offset" />
          </mxGeometry>
        </mxCell>
        <mxCell id="3kti3_zSwYaAKb-g7Pxp-42" value="" style="ellipse;html=1;shape=endState;fillColor=strokeColor;" vertex="1" parent="1">
          <mxGeometry x="590" y="300" width="30" height="30" as="geometry" />
        </mxCell>
        <mxCell id="3kti3_zSwYaAKb-g7Pxp-58" value="" style="ellipse;fillColor=strokeColor;html=1;" vertex="1" parent="1">
          <mxGeometry x="50" y="540" width="30" height="30" as="geometry" />
        </mxCell>
        <mxCell id="3kti3_zSwYaAKb-g7Pxp-59" value="" style="endArrow=open;startArrow=none;endFill=0;startFill=0;endSize=8;html=1;verticalAlign=bottom;labelBackgroundColor=none;rounded=0;" edge="1" parent="1">
          <mxGeometry width="160" relative="1" as="geometry">
            <mxPoint x="80" y="554.5" as="sourcePoint" />
            <mxPoint x="130" y="555" as="targetPoint" />
          </mxGeometry>
        </mxCell>
        <mxCell id="3kti3_zSwYaAKb-g7Pxp-61" value="" style="rhombus;" vertex="1" parent="1">
          <mxGeometry x="130" y="540" width="50" height="30" as="geometry" />
        </mxCell>
        <mxCell id="3kti3_zSwYaAKb-g7Pxp-62" value="" style="endArrow=open;startArrow=none;endFill=0;startFill=0;endSize=8;html=1;verticalAlign=bottom;labelBackgroundColor=none;strokeWidth=1;rounded=0;" edge="1" parent="1" source="3kti3_zSwYaAKb-g7Pxp-61">
          <mxGeometry width="160" relative="1" as="geometry">
            <mxPoint x="160" y="530" as="sourcePoint" />
            <mxPoint x="230" y="460" as="targetPoint" />
            <Array as="points">
              <mxPoint x="155" y="460" />
            </Array>
          </mxGeometry>
        </mxCell>
        <mxCell id="3kti3_zSwYaAKb-g7Pxp-63" value="新增評論" style="html=1;align=center;verticalAlign=top;rounded=1;absoluteArcSize=1;arcSize=10;dashed=0;whiteSpace=wrap;" vertex="1" parent="1">
          <mxGeometry x="230" y="440" width="100" height="30" as="geometry" />
        </mxCell>
        <mxCell id="3kti3_zSwYaAKb-g7Pxp-64" value="" style="endArrow=open;startArrow=none;endFill=0;startFill=0;endSize=8;html=1;verticalAlign=bottom;labelBackgroundColor=none;rounded=0;" edge="1" parent="1">
          <mxGeometry width="160" relative="1" as="geometry">
            <mxPoint x="180" y="554.5" as="sourcePoint" />
            <mxPoint x="230" y="555" as="targetPoint" />
          </mxGeometry>
        </mxCell>
        <mxCell id="3kti3_zSwYaAKb-g7Pxp-65" value="修改評論" style="html=1;align=center;verticalAlign=top;rounded=1;absoluteArcSize=1;arcSize=10;dashed=0;whiteSpace=wrap;" vertex="1" parent="1">
          <mxGeometry x="230" y="540" width="100" height="30" as="geometry" />
        </mxCell>
        <mxCell id="3kti3_zSwYaAKb-g7Pxp-66" value="刪除評論" style="html=1;align=center;verticalAlign=top;rounded=1;absoluteArcSize=1;arcSize=10;dashed=0;whiteSpace=wrap;" vertex="1" parent="1">
          <mxGeometry x="230" y="620" width="100" height="30" as="geometry" />
        </mxCell>
        <mxCell id="3kti3_zSwYaAKb-g7Pxp-67" value="" style="endArrow=open;startArrow=none;endFill=0;startFill=0;endSize=8;html=1;verticalAlign=bottom;labelBackgroundColor=none;strokeWidth=1;rounded=0;entryX=0;entryY=0.5;entryDx=0;entryDy=0;" edge="1" parent="1" target="3kti3_zSwYaAKb-g7Pxp-66">
          <mxGeometry width="160" relative="1" as="geometry">
            <mxPoint x="155" y="570" as="sourcePoint" />
            <mxPoint x="230" y="680" as="targetPoint" />
            <Array as="points">
              <mxPoint x="155" y="630" />
            </Array>
          </mxGeometry>
        </mxCell>
        <mxCell id="3kti3_zSwYaAKb-g7Pxp-68" value="" style="endArrow=open;startArrow=none;endFill=0;startFill=0;endSize=8;html=1;verticalAlign=bottom;labelBackgroundColor=none;rounded=0;" edge="1" parent="1" target="3kti3_zSwYaAKb-g7Pxp-69">
          <mxGeometry width="160" relative="1" as="geometry">
            <mxPoint x="330" y="634.5" as="sourcePoint" />
            <mxPoint x="380" y="635" as="targetPoint" />
          </mxGeometry>
        </mxCell>
        <mxCell id="3kti3_zSwYaAKb-g7Pxp-69" value="" style="shape=umlDestroy;html=1;" vertex="1" parent="1">
          <mxGeometry x="365" y="620" width="55" height="30" as="geometry" />
        </mxCell>
        <mxCell id="3kti3_zSwYaAKb-g7Pxp-71" value="" style="endArrow=open;startArrow=none;endFill=0;startFill=0;endSize=8;html=1;verticalAlign=bottom;labelBackgroundColor=none;rounded=0;" edge="1" parent="1">
          <mxGeometry width="160" relative="1" as="geometry">
            <mxPoint x="330" y="554.5" as="sourcePoint" />
            <mxPoint x="380" y="555" as="targetPoint" />
          </mxGeometry>
        </mxCell>
        <mxCell id="3kti3_zSwYaAKb-g7Pxp-72" value="" style="rhombus;" vertex="1" parent="1">
          <mxGeometry x="380" y="540" width="50" height="30" as="geometry" />
        </mxCell>
        <mxCell id="3kti3_zSwYaAKb-g7Pxp-73" value="" style="endArrow=open;startArrow=none;endFill=0;startFill=0;endSize=8;html=1;verticalAlign=bottom;labelBackgroundColor=none;rounded=0;" edge="1" parent="1">
          <mxGeometry width="160" relative="1" as="geometry">
            <mxPoint x="430" y="554.5" as="sourcePoint" />
            <mxPoint x="500" y="555" as="targetPoint" />
          </mxGeometry>
        </mxCell>
        <mxCell id="3kti3_zSwYaAKb-g7Pxp-75" value="修改成功" style="edgeLabel;html=1;align=center;verticalAlign=middle;resizable=0;points=[];" vertex="1" connectable="0" parent="3kti3_zSwYaAKb-g7Pxp-73">
          <mxGeometry x="-0.432" y="2" relative="1" as="geometry">
            <mxPoint as="offset" />
          </mxGeometry>
        </mxCell>
        <mxCell id="3kti3_zSwYaAKb-g7Pxp-78" value="" style="ellipse;fillColor=strokeColor;html=1;" vertex="1" parent="1">
          <mxGeometry x="500" y="540" width="30" height="30" as="geometry" />
        </mxCell>
        <mxCell id="3kti3_zSwYaAKb-g7Pxp-79" value="" style="endArrow=open;startArrow=none;endFill=0;startFill=0;endSize=8;html=1;verticalAlign=bottom;labelBackgroundColor=none;rounded=0;" edge="1" parent="1">
          <mxGeometry width="160" relative="1" as="geometry">
            <mxPoint x="530" y="554.5" as="sourcePoint" />
            <mxPoint x="580" y="555" as="targetPoint" />
          </mxGeometry>
        </mxCell>
        <mxCell id="3kti3_zSwYaAKb-g7Pxp-80" value="儲存評論" style="html=1;align=center;verticalAlign=top;rounded=1;absoluteArcSize=1;arcSize=10;dashed=0;whiteSpace=wrap;" vertex="1" parent="1">
          <mxGeometry x="580" y="540" width="100" height="30" as="geometry" />
        </mxCell>
        <mxCell id="3kti3_zSwYaAKb-g7Pxp-81" value="" style="endArrow=open;startArrow=none;endFill=0;startFill=0;endSize=8;html=1;verticalAlign=bottom;labelBackgroundColor=none;rounded=0;" edge="1" parent="1">
          <mxGeometry width="160" relative="1" as="geometry">
            <mxPoint x="680" y="554.5" as="sourcePoint" />
            <mxPoint x="730" y="555" as="targetPoint" />
          </mxGeometry>
        </mxCell>
        <mxCell id="3kti3_zSwYaAKb-g7Pxp-82" value="" style="ellipse;html=1;shape=endState;fillColor=strokeColor;" vertex="1" parent="1">
          <mxGeometry x="730" y="540" width="30" height="30" as="geometry" />
        </mxCell>
        <mxCell id="3kti3_zSwYaAKb-g7Pxp-85" value="" style="endArrow=open;startArrow=none;endFill=0;startFill=0;endSize=8;html=1;verticalAlign=bottom;labelBackgroundColor=none;rounded=0;entryX=0.5;entryY=0;entryDx=0;entryDy=0;" edge="1" parent="1" target="3kti3_zSwYaAKb-g7Pxp-78">
          <mxGeometry width="160" relative="1" as="geometry">
            <mxPoint x="429" y="454.5" as="sourcePoint" />
            <mxPoint x="510" y="520" as="targetPoint" />
            <Array as="points">
              <mxPoint x="510" y="460" />
            </Array>
          </mxGeometry>
        </mxCell>
        <mxCell id="3kti3_zSwYaAKb-g7Pxp-86" value="新增成功" style="edgeLabel;html=1;align=center;verticalAlign=middle;resizable=0;points=[];" vertex="1" connectable="0" parent="3kti3_zSwYaAKb-g7Pxp-85">
          <mxGeometry x="-0.432" y="2" relative="1" as="geometry">
            <mxPoint as="offset" />
          </mxGeometry>
        </mxCell>
        <mxCell id="3kti3_zSwYaAKb-g7Pxp-87" value="" style="rhombus;" vertex="1" parent="1">
          <mxGeometry x="379" y="440" width="50" height="30" as="geometry" />
        </mxCell>
        <mxCell id="3kti3_zSwYaAKb-g7Pxp-88" value="" style="endArrow=open;startArrow=none;endFill=0;startFill=0;endSize=8;html=1;verticalAlign=bottom;labelBackgroundColor=none;rounded=0;" edge="1" parent="1">
          <mxGeometry width="160" relative="1" as="geometry">
            <mxPoint x="329" y="454.5" as="sourcePoint" />
            <mxPoint x="379" y="455" as="targetPoint" />
          </mxGeometry>
        </mxCell>
        <mxCell id="3kti3_zSwYaAKb-g7Pxp-89" value="" style="endArrow=none;startArrow=open;endFill=0;startFill=0;endSize=8;html=1;verticalAlign=bottom;labelBackgroundColor=none;rounded=0;entryX=0.5;entryY=0;entryDx=0;entryDy=0;" edge="1" parent="1" target="3kti3_zSwYaAKb-g7Pxp-87">
          <mxGeometry width="160" relative="1" as="geometry">
            <mxPoint x="280" y="440" as="sourcePoint" />
            <mxPoint x="450" y="440" as="targetPoint" />
            <Array as="points">
              <mxPoint x="280" y="410" />
              <mxPoint x="404" y="410" />
            </Array>
          </mxGeometry>
        </mxCell>
        <mxCell id="3kti3_zSwYaAKb-g7Pxp-90" value="新增失敗" style="edgeLabel;html=1;align=center;verticalAlign=middle;resizable=0;points=[];" vertex="1" connectable="0" parent="3kti3_zSwYaAKb-g7Pxp-89">
          <mxGeometry x="0.0018" y="-5" relative="1" as="geometry">
            <mxPoint as="offset" />
          </mxGeometry>
        </mxCell>
        <mxCell id="3kti3_zSwYaAKb-g7Pxp-91" value="" style="ellipse;fillColor=strokeColor;html=1;" vertex="1" parent="1">
          <mxGeometry x="50" y="720" width="30" height="30" as="geometry" />
        </mxCell>
        <mxCell id="3kti3_zSwYaAKb-g7Pxp-92" value="" style="endArrow=open;startArrow=none;endFill=0;startFill=0;endSize=8;html=1;verticalAlign=bottom;labelBackgroundColor=none;rounded=0;" edge="1" parent="1">
          <mxGeometry width="160" relative="1" as="geometry">
            <mxPoint x="80" y="734.5" as="sourcePoint" />
            <mxPoint x="160" y="735" as="targetPoint" />
          </mxGeometry>
        </mxCell>
        <mxCell id="3kti3_zSwYaAKb-g7Pxp-93" value="修改密碼" style="html=1;align=center;verticalAlign=top;rounded=1;absoluteArcSize=1;arcSize=10;dashed=0;whiteSpace=wrap;" vertex="1" parent="1">
          <mxGeometry x="160" y="720" width="100" height="30" as="geometry" />
        </mxCell>
        <mxCell id="3kti3_zSwYaAKb-g7Pxp-94" value="" style="endArrow=open;startArrow=none;endFill=0;startFill=0;endSize=8;html=1;verticalAlign=bottom;labelBackgroundColor=none;rounded=0;" edge="1" parent="1">
          <mxGeometry width="160" relative="1" as="geometry">
            <mxPoint x="260" y="734.5" as="sourcePoint" />
            <mxPoint x="360" y="735" as="targetPoint" />
          </mxGeometry>
        </mxCell>
        <mxCell id="3kti3_zSwYaAKb-g7Pxp-107" value="點選修改密碼" style="edgeLabel;html=1;align=center;verticalAlign=middle;resizable=0;points=[];" vertex="1" connectable="0" parent="3kti3_zSwYaAKb-g7Pxp-94">
          <mxGeometry x="-0.2797" y="-2" relative="1" as="geometry">
            <mxPoint as="offset" />
          </mxGeometry>
        </mxCell>
        <mxCell id="3kti3_zSwYaAKb-g7Pxp-96" value="輸入新密碼" style="html=1;align=center;verticalAlign=top;rounded=1;absoluteArcSize=1;arcSize=10;dashed=0;whiteSpace=wrap;" vertex="1" parent="1">
          <mxGeometry x="365" y="720" width="100" height="30" as="geometry" />
        </mxCell>
        <mxCell id="3kti3_zSwYaAKb-g7Pxp-97" value="" style="endArrow=open;startArrow=none;endFill=0;startFill=0;endSize=8;html=1;verticalAlign=bottom;labelBackgroundColor=none;rounded=0;" edge="1" parent="1">
          <mxGeometry width="160" relative="1" as="geometry">
            <mxPoint x="465" y="734.5" as="sourcePoint" />
            <mxPoint x="545" y="735" as="targetPoint" />
          </mxGeometry>
        </mxCell>
        <mxCell id="3kti3_zSwYaAKb-g7Pxp-98" value="修改成功" style="edgeLabel;html=1;align=center;verticalAlign=middle;resizable=0;points=[];" vertex="1" connectable="0" parent="3kti3_zSwYaAKb-g7Pxp-97">
          <mxGeometry x="0.2391" y="-1" relative="1" as="geometry">
            <mxPoint as="offset" />
          </mxGeometry>
        </mxCell>
        <mxCell id="3kti3_zSwYaAKb-g7Pxp-99" value="" style="edgeStyle=orthogonalEdgeStyle;rounded=0;orthogonalLoop=1;jettySize=auto;html=1;" edge="1" source="3kti3_zSwYaAKb-g7Pxp-100" parent="1">
          <mxGeometry relative="1" as="geometry">
            <mxPoint x="615" y="735" as="targetPoint" />
          </mxGeometry>
        </mxCell>
        <mxCell id="3kti3_zSwYaAKb-g7Pxp-100" value="" style="ellipse;fillColor=strokeColor;html=1;" vertex="1" parent="1">
          <mxGeometry x="545" y="720" width="30" height="30" as="geometry" />
        </mxCell>
        <mxCell id="3kti3_zSwYaAKb-g7Pxp-101" value="" style="endArrow=open;startArrow=none;endFill=0;startFill=0;endSize=8;html=1;verticalAlign=bottom;labelBackgroundColor=none;rounded=0;" edge="1" parent="1">
          <mxGeometry width="160" relative="1" as="geometry">
            <mxPoint x="575" y="734.5" as="sourcePoint" />
            <mxPoint x="615" y="735" as="targetPoint" />
          </mxGeometry>
        </mxCell>
        <mxCell id="3kti3_zSwYaAKb-g7Pxp-102" value="" style="endArrow=none;startArrow=open;endFill=0;startFill=0;endSize=8;html=1;verticalAlign=bottom;labelBackgroundColor=none;rounded=0;entryX=0.5;entryY=1;entryDx=0;entryDy=0;exitX=0.607;exitY=1.03;exitDx=0;exitDy=0;exitPerimeter=0;" edge="1" source="3kti3_zSwYaAKb-g7Pxp-93" target="3kti3_zSwYaAKb-g7Pxp-96" parent="1">
          <mxGeometry width="160" relative="1" as="geometry">
            <mxPoint x="170" y="790" as="sourcePoint" />
            <mxPoint x="400" y="780.5" as="targetPoint" />
            <Array as="points">
              <mxPoint x="220" y="790" />
              <mxPoint x="415" y="790" />
            </Array>
          </mxGeometry>
        </mxCell>
        <mxCell id="3kti3_zSwYaAKb-g7Pxp-103" value="修改失敗" style="edgeLabel;html=1;align=center;verticalAlign=middle;resizable=0;points=[];" vertex="1" connectable="0" parent="3kti3_zSwYaAKb-g7Pxp-102">
          <mxGeometry x="0.0018" y="-5" relative="1" as="geometry">
            <mxPoint as="offset" />
          </mxGeometry>
        </mxCell>
        <mxCell id="3kti3_zSwYaAKb-g7Pxp-104" value="" style="ellipse;html=1;shape=endState;fillColor=strokeColor;" vertex="1" parent="1">
          <mxGeometry x="615" y="720" width="30" height="30" as="geometry" />
        </mxCell>
        <mxCell id="3kti3_zSwYaAKb-g7Pxp-108" value="" style="ellipse;fillColor=strokeColor;html=1;" vertex="1" parent="1">
          <mxGeometry x="50" y="880" width="30" height="30" as="geometry" />
        </mxCell>
        <mxCell id="3kti3_zSwYaAKb-g7Pxp-109" value="" style="endArrow=open;startArrow=none;endFill=0;startFill=0;endSize=8;html=1;verticalAlign=bottom;labelBackgroundColor=none;rounded=0;" edge="1" parent="1">
          <mxGeometry width="160" relative="1" as="geometry">
            <mxPoint x="80" y="894.5" as="sourcePoint" />
            <mxPoint x="160" y="895" as="targetPoint" />
          </mxGeometry>
        </mxCell>
        <mxCell id="3kti3_zSwYaAKb-g7Pxp-110" value="變更大頭貼" style="html=1;align=center;verticalAlign=top;rounded=1;absoluteArcSize=1;arcSize=10;dashed=0;whiteSpace=wrap;" vertex="1" parent="1">
          <mxGeometry x="160" y="880" width="100" height="30" as="geometry" />
        </mxCell>
        <mxCell id="3kti3_zSwYaAKb-g7Pxp-111" value="" style="endArrow=open;startArrow=none;endFill=0;startFill=0;endSize=8;html=1;verticalAlign=bottom;labelBackgroundColor=none;rounded=0;" edge="1" parent="1">
          <mxGeometry width="160" relative="1" as="geometry">
            <mxPoint x="260" y="894.5" as="sourcePoint" />
            <mxPoint x="360" y="895" as="targetPoint" />
          </mxGeometry>
        </mxCell>
        <mxCell id="3kti3_zSwYaAKb-g7Pxp-112" value="點選變更大頭貼" style="edgeLabel;html=1;align=center;verticalAlign=middle;resizable=0;points=[];" vertex="1" connectable="0" parent="3kti3_zSwYaAKb-g7Pxp-111">
          <mxGeometry x="-0.2797" y="-2" relative="1" as="geometry">
            <mxPoint as="offset" />
          </mxGeometry>
        </mxCell>
        <mxCell id="3kti3_zSwYaAKb-g7Pxp-113" value="選擇新頭貼" style="html=1;align=center;verticalAlign=top;rounded=1;absoluteArcSize=1;arcSize=10;dashed=0;whiteSpace=wrap;" vertex="1" parent="1">
          <mxGeometry x="365" y="880" width="100" height="30" as="geometry" />
        </mxCell>
        <mxCell id="3kti3_zSwYaAKb-g7Pxp-114" value="" style="endArrow=open;startArrow=none;endFill=0;startFill=0;endSize=8;html=1;verticalAlign=bottom;labelBackgroundColor=none;rounded=0;" edge="1" parent="1">
          <mxGeometry width="160" relative="1" as="geometry">
            <mxPoint x="465" y="894.5" as="sourcePoint" />
            <mxPoint x="545" y="895" as="targetPoint" />
          </mxGeometry>
        </mxCell>
        <mxCell id="3kti3_zSwYaAKb-g7Pxp-115" value="變更成功" style="edgeLabel;html=1;align=center;verticalAlign=middle;resizable=0;points=[];" vertex="1" connectable="0" parent="3kti3_zSwYaAKb-g7Pxp-114">
          <mxGeometry x="0.2391" y="-1" relative="1" as="geometry">
            <mxPoint as="offset" />
          </mxGeometry>
        </mxCell>
        <mxCell id="3kti3_zSwYaAKb-g7Pxp-116" value="" style="edgeStyle=orthogonalEdgeStyle;rounded=0;orthogonalLoop=1;jettySize=auto;html=1;" edge="1" source="3kti3_zSwYaAKb-g7Pxp-117" parent="1">
          <mxGeometry relative="1" as="geometry">
            <mxPoint x="615" y="895" as="targetPoint" />
          </mxGeometry>
        </mxCell>
        <mxCell id="3kti3_zSwYaAKb-g7Pxp-117" value="" style="ellipse;fillColor=strokeColor;html=1;" vertex="1" parent="1">
          <mxGeometry x="545" y="880" width="30" height="30" as="geometry" />
        </mxCell>
        <mxCell id="3kti3_zSwYaAKb-g7Pxp-118" value="" style="endArrow=open;startArrow=none;endFill=0;startFill=0;endSize=8;html=1;verticalAlign=bottom;labelBackgroundColor=none;rounded=0;" edge="1" parent="1">
          <mxGeometry width="160" relative="1" as="geometry">
            <mxPoint x="575" y="894.5" as="sourcePoint" />
            <mxPoint x="615" y="895" as="targetPoint" />
          </mxGeometry>
        </mxCell>
        <mxCell id="3kti3_zSwYaAKb-g7Pxp-119" value="" style="endArrow=none;startArrow=open;endFill=0;startFill=0;endSize=8;html=1;verticalAlign=bottom;labelBackgroundColor=none;rounded=0;entryX=0.5;entryY=1;entryDx=0;entryDy=0;exitX=0.607;exitY=1.03;exitDx=0;exitDy=0;exitPerimeter=0;" edge="1" source="3kti3_zSwYaAKb-g7Pxp-110" target="3kti3_zSwYaAKb-g7Pxp-113" parent="1">
          <mxGeometry width="160" relative="1" as="geometry">
            <mxPoint x="170" y="950" as="sourcePoint" />
            <mxPoint x="400" y="940.5" as="targetPoint" />
            <Array as="points">
              <mxPoint x="220" y="950" />
              <mxPoint x="415" y="950" />
            </Array>
          </mxGeometry>
        </mxCell>
        <mxCell id="3kti3_zSwYaAKb-g7Pxp-120" value="變更失敗" style="edgeLabel;html=1;align=center;verticalAlign=middle;resizable=0;points=[];" vertex="1" connectable="0" parent="3kti3_zSwYaAKb-g7Pxp-119">
          <mxGeometry x="0.0018" y="-5" relative="1" as="geometry">
            <mxPoint as="offset" />
          </mxGeometry>
        </mxCell>
        <mxCell id="3kti3_zSwYaAKb-g7Pxp-121" value="" style="ellipse;html=1;shape=endState;fillColor=strokeColor;" vertex="1" parent="1">
          <mxGeometry x="615" y="880" width="30" height="30" as="geometry" />
        </mxCell>
        <mxCell id="3kti3_zSwYaAKb-g7Pxp-122" value="" style="ellipse;fillColor=strokeColor;html=1;" vertex="1" parent="1">
          <mxGeometry x="60" y="1010" width="30" height="30" as="geometry" />
        </mxCell>
        <mxCell id="3kti3_zSwYaAKb-g7Pxp-123" value="" style="endArrow=open;startArrow=none;endFill=0;startFill=0;endSize=8;html=1;verticalAlign=bottom;labelBackgroundColor=none;rounded=0;" edge="1" parent="1">
          <mxGeometry width="160" relative="1" as="geometry">
            <mxPoint x="90" y="1024.5" as="sourcePoint" />
            <mxPoint x="170" y="1025" as="targetPoint" />
          </mxGeometry>
        </mxCell>
        <mxCell id="3kti3_zSwYaAKb-g7Pxp-124" value="登出" style="html=1;align=center;verticalAlign=top;rounded=1;absoluteArcSize=1;arcSize=10;dashed=0;whiteSpace=wrap;" vertex="1" parent="1">
          <mxGeometry x="170" y="1010" width="100" height="30" as="geometry" />
        </mxCell>
        <mxCell id="3kti3_zSwYaAKb-g7Pxp-125" value="" style="endArrow=open;startArrow=none;endFill=0;startFill=0;endSize=8;html=1;verticalAlign=bottom;labelBackgroundColor=none;rounded=0;entryX=0;entryY=0.5;entryDx=0;entryDy=0;" edge="1" parent="1" target="3kti3_zSwYaAKb-g7Pxp-131">
          <mxGeometry width="160" relative="1" as="geometry">
            <mxPoint x="270" y="1024.5" as="sourcePoint" />
            <mxPoint x="370" y="1025" as="targetPoint" />
          </mxGeometry>
        </mxCell>
        <mxCell id="3kti3_zSwYaAKb-g7Pxp-126" value="點選登出" style="edgeLabel;html=1;align=center;verticalAlign=middle;resizable=0;points=[];" vertex="1" connectable="0" parent="3kti3_zSwYaAKb-g7Pxp-125">
          <mxGeometry x="-0.2797" y="-2" relative="1" as="geometry">
            <mxPoint as="offset" />
          </mxGeometry>
        </mxCell>
        <mxCell id="3kti3_zSwYaAKb-g7Pxp-128" value="" style="endArrow=open;startArrow=none;endFill=0;startFill=0;endSize=8;html=1;verticalAlign=bottom;labelBackgroundColor=none;rounded=0;" edge="1" parent="1">
          <mxGeometry width="160" relative="1" as="geometry">
            <mxPoint x="444" y="1024.5" as="sourcePoint" />
            <mxPoint x="524" y="1025" as="targetPoint" />
          </mxGeometry>
        </mxCell>
        <mxCell id="3kti3_zSwYaAKb-g7Pxp-129" value="登出成功" style="edgeLabel;html=1;align=center;verticalAlign=middle;resizable=0;points=[];" vertex="1" connectable="0" parent="3kti3_zSwYaAKb-g7Pxp-128">
          <mxGeometry x="0.2391" y="-1" relative="1" as="geometry">
            <mxPoint x="-14" y="-1" as="offset" />
          </mxGeometry>
        </mxCell>
        <mxCell id="3kti3_zSwYaAKb-g7Pxp-131" value="" style="ellipse;fillColor=strokeColor;html=1;" vertex="1" parent="1">
          <mxGeometry x="414" y="1010" width="30" height="30" as="geometry" />
        </mxCell>
        <mxCell id="3kti3_zSwYaAKb-g7Pxp-133" value="" style="endArrow=none;startArrow=open;endFill=0;startFill=0;endSize=8;html=1;verticalAlign=bottom;labelBackgroundColor=none;rounded=0;entryX=0.5;entryY=1;entryDx=0;entryDy=0;exitX=0.607;exitY=1.03;exitDx=0;exitDy=0;exitPerimeter=0;" edge="1" source="3kti3_zSwYaAKb-g7Pxp-124" parent="1">
          <mxGeometry width="160" relative="1" as="geometry">
            <mxPoint x="180" y="1080" as="sourcePoint" />
            <mxPoint x="425" y="1040" as="targetPoint" />
            <Array as="points">
              <mxPoint x="230" y="1080" />
              <mxPoint x="425" y="1080" />
            </Array>
          </mxGeometry>
        </mxCell>
        <mxCell id="3kti3_zSwYaAKb-g7Pxp-134" value="登出失敗" style="edgeLabel;html=1;align=center;verticalAlign=middle;resizable=0;points=[];" vertex="1" connectable="0" parent="3kti3_zSwYaAKb-g7Pxp-133">
          <mxGeometry x="0.0018" y="-5" relative="1" as="geometry">
            <mxPoint as="offset" />
          </mxGeometry>
        </mxCell>
        <mxCell id="3kti3_zSwYaAKb-g7Pxp-135" value="" style="ellipse;html=1;shape=endState;fillColor=strokeColor;" vertex="1" parent="1">
          <mxGeometry x="520" y="1010" width="30" height="30" as="geometry" />
        </mxCell>
      </root>
    </mxGraphModel>
  </diagram>
</mxfile>
